{
    "asset" : {
        "generator" : "Khronos glTF Blender I/O v3.4.50",
        "version" : "2.0"
    },
    "extensionsUsed" : [
        "KHR_materials_specular",
        "KHR_materials_ior"
    ],
    "scene" : 0,
    "scenes" : [
        {
            "name" : "Scene",
            "nodes" : [
                0,
                1,
                2,
                3,
                4,
                5
            ]
        }
    ],
    "nodes" : [
        {
            "mesh" : 0,
            "name" : "Cylinder.004",
            "rotation" : [
                0,
                0,
                -0.7071068286895752,
                0.7071068286895752
            ],
            "scale" : [
                1,
                0.5,
                1
            ],
            "translation" : [
                0,
                0,
                0.4000000059604645
            ]
        },
        {
            "name" : "Mball",
            "scale" : [
                0.04483864828944206,
                0.04483864828944206,
                0.04483864828944206
            ],
            "translation" : [
                0.5,
                0.375,
                0
            ]
        },
        {
            "name" : "Mball.001",
            "scale" : [
                0.04483864828944206,
                0.04483864828944206,
                0.04483864828944206
            ],
            "translation" : [
                0.25,
                0.375,
                0
            ]
        },
        {
            "name" : "Mball.002",
            "scale" : [
                0.04483864828944206,
                0.04483864828944206,
                0.04483864828944206
            ],
            "translation" : [
                0,
                0.375,
                0
            ]
        },
        {
            "name" : "Mball.003",
            "scale" : [
                0.04483864828944206,
                0.04483864828944206,
                0.04483864828944206
            ],
            "translation" : [
                -0.25,
                0.375,
                0
            ]
        },
        {
            "name" : "Mball.004",
            "scale" : [
                0.04483864828944206,
                0.04483864828944206,
                0.04483864828944206
            ],
            "translation" : [
                -0.5,
                0.375,
                0
            ]
        }
    ],
    "materials" : [
        {
            "doubleSided" : true,
            "extensions" : {
                "KHR_materials_specular" : {
                    "specularColorFactor" : [
                        0.948543059910952,
                        0.948543059910952,
                        0.948543059910952
                    ]
                },
                "KHR_materials_ior" : {
                    "ior" : 1.4500000476837158
                }
            },
            "name" : "Material.002",
            "pbrMetallicRoughness" : {
                "baseColorFactor" : [
                    0.828125,
                    0.68359375,
                    0.21484375,
                    1
                ],
                "roughnessFactor" : 0.4000000059604645
            }
        }
    ],
    "meshes" : [
        {
            "name" : "Cylinder.008",
            "primitives" : [
                {
                    "attributes" : {
                        "POSITION" : 0,
                        "TEXCOORD_0" : 1,
                        "NORMAL" : 2
                    },
                    "indices" : 3,
                    "material" : 0
                }
            ]
        }
    ],
    "accessors" : [
        {
            "bufferView" : 0,
            "componentType" : 5126,
            "count" : 1024,
            "max" : [
                0.10000000149011612,
                4,
                0.10000000149011612
            ],
            "min" : [
                -0.8500000238418579,
                -4,
                -0.9000000357627869
            ],
            "type" : "VEC3"
        },
        {
            "bufferView" : 1,
            "componentType" : 5126,
            "count" : 1024,
            "type" : "VEC2"
        },
        {
            "bufferView" : 2,
            "componentType" : 5126,
            "count" : 1024,
            "type" : "VEC3"
        },
        {
            "bufferView" : 3,
            "componentType" : 5123,
            "count" : 1860,
            "type" : "SCALAR"
        }
    ],
    "bufferViews" : [
        {
            "buffer" : 0,
            "byteLength" : 12288,
            "byteOffset" : 0,
            "target" : 34962
        },
        {
            "buffer" : 0,
            "byteLength" : 8192,
            "byteOffset" : 12288,
            "target" : 34962
        },
        {
            "buffer" : 0,
            "byteLength" : 12288,
            "byteOffset" : 20480,
            "target" : 34962
        },
        {
            "buffer" : 0,
            "byteLength" : 3720,
            "byteOffset" : 32768,
            "target" : 34963
        }
    ],
    "buffers" : [
        {
            "byteLength" : 36488,
            "uri" : "untitled.bin"
        }
    ]
}
